<svg width="29" height="29" viewBox="0 0 29 29" fill="none" xmlns="http://www.w3.org/2000/svg">
<path d="M10.1667 10.1667L18.8333 18.8333M18.8333 10.1667L10.1667 18.8333M14.5 27.5C12.7928 27.5 11.1023 27.1637 9.52511 26.5104C7.94788 25.8571 6.51477 24.8995 5.30761 23.6924C4.10045 22.4852 3.14288 21.0521 2.48957 19.4749C1.83625 17.8976 1.5 16.2072 1.5 14.5C1.5 12.7928 1.83626 11.1023 2.48957 9.52511C3.14288 7.94788 4.10045 6.51477 5.30761 5.30761C6.51478 4.10045 7.94788 3.14288 9.52512 2.48957C11.1023 1.83625 12.7928 1.5 14.5 1.5C16.2072 1.5 17.8977 1.83626 19.4749 2.48957C21.0521 3.14288 22.4852 4.10045 23.6924 5.30761C24.8995 6.51478 25.8571 7.94788 26.5104 9.52512C27.1637 11.1024 27.5 12.7928 27.5 14.5C27.5 16.2072 27.1637 17.8977 26.5104 19.4749C25.8571 21.0521 24.8995 22.4852 23.6924 23.6924C22.4852 24.8996 21.0521 25.8571 19.4749 26.5104C17.8976 27.1637 16.2072 27.5 14.5 27.5Z" stroke="#BBBBBB" stroke-width="3" stroke-linecap="round"/>
</svg>
