<svg width="10" height="11" viewBox="0 0 10 11" fill="none" xmlns="http://www.w3.org/2000/svg">
<g clip-path="url(#clip0_173_368)">
<path d="M7.22232 1.1C6.75804 1.51465 6.33884 1.95057 5.96741 2.38842C5.35893 1.58168 4.60446 0.76334 3.75 0C1.5567 1.95873 0 4.51086 0 6.05C0 8.78389 2.23862 11 5 11C7.76138 11 10 8.78389 10 6.05C10 4.90553 8.83973 2.54504 7.22232 1.1ZM6.78772 8.41865C6.30424 8.74436 5.70804 8.9375 5.06384 8.9375C3.45335 8.9375 2.14286 7.91184 2.14286 6.24658C2.14286 5.41707 2.68549 4.68617 3.76763 3.4375C3.92232 3.60895 5.97366 6.13035 5.97366 6.13035L7.28237 4.69348C7.37478 4.84064 7.45893 4.98459 7.53393 5.12252C8.14442 6.24379 7.88683 7.67852 6.78772 8.41865Z" fill="#F84B4C"/>
</g>
<defs>
<clipPath id="clip0_173_368">
<rect width="10" height="11" fill="white"/>
</clipPath>
</defs>
</svg>
