<svg width="13" height="13" viewBox="0 0 13 13" fill="none" xmlns="http://www.w3.org/2000/svg">
<g clip-path="url(#clip0_173_387)">
<path d="M8.12997 6.19053L6.86805 8.71436C6.71571 9.02158 6.27391 9.01143 6.13426 8.69912L4.68954 5.49229L3.92782 7.31279H1.53856L6.17235 12.0481C6.35262 12.2335 6.64462 12.2335 6.82489 12.0481L11.4612 7.31279H8.6911L8.12997 6.19053ZM12.0274 1.87666L11.9665 1.81318C10.6589 0.477637 8.51844 0.477637 7.20829 1.81318L6.49989 2.53936L5.79149 1.81572C4.48387 0.477637 2.3409 0.477637 1.03329 1.81572L0.97235 1.87666C-0.264173 3.14111 -0.317494 5.15459 0.786998 6.50029H3.387L4.29852 4.31162C4.43563 3.98408 4.89774 3.97647 5.04501 4.30147L6.52274 7.58447L7.76688 5.09873C7.91669 4.79912 8.34325 4.79912 8.49305 5.09873L9.19383 6.50029H12.2128C13.3173 5.15459 13.264 3.14111 12.0274 1.87666Z" fill="#06C56C"/>
</g>
<defs>
<clipPath id="clip0_173_387">
<rect width="13" height="13" fill="white"/>
</clipPath>
</defs>
</svg>
