<svg width="24" height="24" viewBox="0 0 24 24" fill="none" xmlns="http://www.w3.org/2000/svg">
<path d="M3.5 15.4995L5.41016 13.5903C6.7558 12.2447 7.42839 11.5718 8.15723 11.5103C8.52416 11.4793 8.89249 11.5503 9.22168 11.7153C9.87545 12.0432 10.2504 12.9175 11 14.6665L11.0537 14.7915C11.3795 15.5516 11.5424 15.9318 11.8105 16.0981C12.0191 16.2272 12.2682 16.2752 12.5098 16.2329C12.8207 16.1783 13.1139 15.8856 13.6992 15.3003L13.8125 15.187C14.5336 14.4659 14.8948 14.1056 15.3037 13.9536C15.753 13.7867 16.247 13.7867 16.6963 13.9536C17.1052 14.1056 17.4664 14.4659 18.1875 15.187L18.9395 15.939C19.6186 16.6181 20.5396 16.9995 21.5 16.9995V4.18994C21.9994 5.39149 22 7.1614 22 9.99951V13.9995C22 17.7707 21.9997 19.657 20.8281 20.8286C19.6565 21.9998 17.7709 21.9995 14 21.9995H10C6.22913 21.9995 4.34347 21.9998 3.17188 20.8286C2.0003 19.657 2 17.7707 2 13.9995V9.99951C2 6.22847 2.00033 4.34293 3.17188 3.17139C3.27545 3.06783 3.38445 2.97327 3.5 2.88721V15.4995Z" fill="#222222"/>
<path d="M10 3H14C15.9139 3 17.2487 3.00229 18.2559 3.1377C19.2342 3.26923 19.7521 3.50989 20.1211 3.87891C20.4901 4.24792 20.7308 4.7658 20.8623 5.74414C20.9977 6.75127 21 8.08611 21 10V14C21 15.9139 20.9977 17.2487 20.8623 18.2559C20.7308 19.2342 20.4901 19.7521 20.1211 20.1211C19.7521 20.4901 19.2342 20.7308 18.2559 20.8623C17.2487 20.9977 15.9139 21 14 21H10C8.08611 21 6.75127 20.9977 5.74414 20.8623C4.7658 20.7308 4.24792 20.4901 3.87891 20.1211C3.50989 19.7521 3.26923 19.2342 3.1377 18.2559C3.00229 17.2487 3 15.9139 3 14V10C3 8.08611 3.00229 6.75127 3.1377 5.74414C3.26923 4.7658 3.50989 4.24792 3.87891 3.87891C4.24792 3.50989 4.7658 3.26923 5.74414 3.1377C6.75127 3.00229 8.08611 3 10 3Z" stroke="#222222" stroke-width="2"/>
<circle cx="15" cy="9" r="2" fill="#222222"/>
</svg>
