<svg width="10" height="9" viewBox="0 0 10 9" fill="none" xmlns="http://www.w3.org/2000/svg">
<g clip-path="url(#clip0_173_358)">
<path d="M0.517333 0.170923C0.614555 -0.0488031 0.892333 -0.0575921 1.00865 0.14983C1.54685 1.09729 2.51039 1.68792 3.61108 1.68792H4.99997C6.84025 1.68792 8.33331 3.19963 8.33331 5.06292C8.33331 5.18596 8.31942 5.30374 8.30726 5.42327C7.19963 4.61995 5.60067 3.93792 3.33331 3.93792C3.18053 3.93792 3.05553 4.06448 3.05553 4.21917C3.05553 4.37385 3.18053 4.50042 3.33331 4.50042C7.69789 4.50042 9.54858 7.2092 9.95831 8.22698C10.0729 8.5135 9.93747 8.84045 9.65449 8.95823C9.36976 9.07776 9.04685 8.93889 8.92879 8.65413C8.90275 8.59084 8.56595 7.81213 7.68053 7.06155C7.11803 7.83323 6.04858 8.56975 4.64407 8.41858C1.91838 8.21819 -2.76566e-05 5.74319 -2.76566e-05 2.71272C-2.76566e-05 1.8303 0.187472 0.916236 0.517333 0.170923Z" fill="#4CA04F"/>
</g>
<defs>
<clipPath id="clip0_173_358">
<rect width="10" height="9" fill="white" transform="matrix(-1 0 0 1 10 0)"/>
</clipPath>
</defs>
</svg>
