<svg width="11" height="14" viewBox="0 0 11 14" fill="none" xmlns="http://www.w3.org/2000/svg">
<g clip-path="url(#clip0_173_381)">
<path d="M9.625 1.75H7.33333C7.33333 0.784766 6.5112 0 5.5 0C4.4888 0 3.66667 0.784766 3.66667 1.75H1.375C0.615885 1.75 0 2.33789 0 3.0625V12.6875C0 13.4121 0.615885 14 1.375 14H9.625C10.3841 14 11 13.4121 11 12.6875V3.0625C11 2.33789 10.3841 1.75 9.625 1.75ZM5.5 1.09375C5.88099 1.09375 6.1875 1.38633 6.1875 1.75C6.1875 2.11367 5.88099 2.40625 5.5 2.40625C5.11901 2.40625 4.8125 2.11367 4.8125 1.75C4.8125 1.38633 5.11901 1.09375 5.5 1.09375ZM8.25 9.40625C8.25 9.52656 8.14688 9.625 8.02083 9.625H6.41667V11.1562C6.41667 11.2766 6.31354 11.375 6.1875 11.375H4.8125C4.68646 11.375 4.58333 11.2766 4.58333 11.1562V9.625H2.97917C2.85313 9.625 2.75 9.52656 2.75 9.40625V8.09375C2.75 7.97344 2.85313 7.875 2.97917 7.875H4.58333V6.34375C4.58333 6.22344 4.68646 6.125 4.8125 6.125H6.1875C6.31354 6.125 6.41667 6.22344 6.41667 6.34375V7.875H8.02083C8.14688 7.875 8.25 7.97344 8.25 8.09375V9.40625ZM8.25 4.15625C8.25 4.27656 8.14688 4.375 8.02083 4.375H2.97917C2.85313 4.375 2.75 4.27656 2.75 4.15625V3.71875C2.75 3.59844 2.85313 3.5 2.97917 3.5H8.02083C8.14688 3.5 8.25 3.59844 8.25 3.71875V4.15625Z" fill="#B6B6B8"/>
</g>
<defs>
<clipPath id="clip0_173_381">
<rect width="11" height="14" fill="white"/>
</clipPath>
</defs>
</svg>
