<svg width="22" height="22" viewBox="0 0 22 22" fill="none" xmlns="http://www.w3.org/2000/svg">
<g clip-path="url(#clip0_174_568)">
<path d="M19.2113 4.81228C17.7418 4.83376 16.5344 6.03259 16.5043 7.50212C16.4828 8.54626 17.0414 9.4615 17.8793 9.94275V14.781C17.8793 17.2431 15.7223 19.2498 13.0668 19.2498C10.4887 19.2498 8.37461 17.3549 8.25859 14.9873C11.3867 14.3427 13.75 11.567 13.75 8.24978V1.57243C13.75 1.08259 13.402 0.657198 12.9207 0.562667L10.218 0.0212603C9.65938 -0.0904584 9.11797 0.270479 9.00625 0.829073L8.86875 1.50368C8.75703 2.06228 9.11797 2.60368 9.67656 2.7154L10.9957 2.97751V8.19392C10.9957 10.467 9.18242 12.349 6.90938 12.3705C4.61484 12.392 2.7457 10.5357 2.7457 8.24548V2.98181L4.06484 2.7197C4.62344 2.60798 4.98438 2.06657 4.87266 1.50798L4.73945 0.83337C4.62773 0.274776 4.08633 -0.0861615 3.52773 0.0255572L0.829297 0.55837C0.348047 0.657198 0 1.07829 0 1.57243V8.24978C0 11.5713 2.36758 14.3513 5.5043 14.9873C5.61602 18.8717 8.96328 21.9998 13.0625 21.9998C17.2305 21.9998 20.625 18.7599 20.625 14.781V9.94275C21.4457 9.46579 22 8.58064 22 7.56228C22 6.02829 20.7453 4.79079 19.2113 4.81228ZM19.25 8.24978C18.8719 8.24978 18.5625 7.9404 18.5625 7.56228C18.5625 7.18415 18.8719 6.87478 19.25 6.87478C19.6281 6.87478 19.9375 7.18415 19.9375 7.56228C19.9375 7.9404 19.6281 8.24978 19.25 8.24978Z" fill="white"/>
</g>
<defs>
<clipPath id="clip0_174_568">
<rect width="22" height="22" fill="white"/>
</clipPath>
</defs>
</svg>
